<?xml version="1.0" encoding="UTF-8" standalone="no"?>
<svg 
    role="img" 
    xmlns="http://www.w3.org/2000/svg" 
    width="1000mm"
    height="1000mm"
    viewBox="0 0 1000 1000"
    style="max-width:1.6em; height: auto;">
    
    <path 
        id="path" 
        style="opacity:1;vector-effect:none;fill:#000000;fill-opacity:1;"
        d=" M 657 650C 561 674 549 674 501 674C 452 674 443 674 347 650C 300 650 271 657 251 669C 232 681 218 699 202 728C 265 815 382 876 500 875C 500 875 500 875 500 875C 597 877 712 839 801 723C 786 694 772 678 754 667C 734 656 705 650 657 650C 657 650 657 650 657 650M 349 600C 351 600 352 600 354 600C 355 600 357 601 358 601C 454 626 451 624 501 624C 550 624 549 626 648 601C 650 600 652 600 654 600C 707 600 747 605 779 624C 811 643 833 673 853 714C 858 722 857 732 851 740C 752 879 614 927 500 925C 359 926 223 853 152 744C 147 736 147 727 151 719C 171 678 192 647 224 627C 256 607 295 600 347 600C 348 600 348 600 349 600C 349 600 349 600 349 600C 349 600 349 600 349 600C 349 600 349 600 349 600M 501 438C 516 438 528 450 528 464C 528 479 516 491 501 491C 494 491 488 488 483 483C 478 478 475 471 475 464C 475 457 478 450 483 445C 488 440 494 438 501 438C 501 438 501 438 501 438M 510 208C 541 208 567 219 582 238C 598 257 603 281 602 304C 602 322 593 337 583 348C 573 358 563 365 554 372C 545 379 537 385 533 390C 528 396 526 400 526 408C 526 417 521 426 513 430C 506 434 496 434 488 430C 480 425 476 416 476 407C 476 388 484 371 494 359C 503 347 514 339 524 332C 534 325 542 319 546 314C 551 309 552 306 552 301C 553 288 550 277 544 270C 538 263 529 258 509 258C 479 258 473 271 468 285C 465 293 458 300 449 301C 440 303 431 299 425 293C 419 286 418 276 421 268C 431 241 460 208 509 208C 509 208 510 208 510 208C 510 208 510 208 510 208M 501 154C 392 154 303 243 303 352C 303 461 392 550 501 550C 610 550 699 461 699 352C 699 243 610 154 501 154C 501 154 501 154 501 154M 501 104C 502 104 502 104 503 104C 639 105 749 216 749 352C 749 489 638 600 501 600C 364 600 253 489 253 352C 253 215 364 104 501 104C 501 104 501 104 501 104"
        transform="">
    </path>    
</svg>